<?xml version="1.0" encoding="utf-8"?>
<!-- Generator: Adobe Illustrator 22.1.0, SVG Export Plug-In . SVG Version: 6.00 Build 0)  -->
<svg version="1.1" id="Layer_1" xmlns="http://www.w3.org/2000/svg" xmlns:xlink="http://www.w3.org/1999/xlink" x="0px" y="0px"
	 viewBox="0 0 566.9 566.9" style="enable-background:new 0 0 566.9 566.9;" xml:space="preserve">
<style type="text/css">
	.st0{display:none;}
	.st1{display:inline;}
	.st2{fill:#2E2C2F;}
	.st3{display:inline;enable-background:new    ;}
	.st4{enable-background:new    ;}
	.st5{clip-path:url(#SVGID_2_);enable-background:new    ;}
	.st6{fill:#7E7E7E;}
	.st7{fill:#272527;}
	.st8{fill:#0A364D;}
	.st9{fill:#0B2C3D;}
	.st10{fill:#0B405C;}
	.st11{fill:#474348;}
	.st12{fill:#0D3448;}
	.st13{fill:#11283A;}
	.st14{fill:#142F45;}
	.st15{fill:#11628E;}
	.st16{fill:#1F496B;}
	.st17{fill:#13506F;}
	.st18{clip-path:url(#SVGID_4_);enable-background:new    ;}
	.st19{fill:#252326;}
	.st20{fill:#242225;}
	.st21{fill:#2B292C;}
	.st22{fill:#423F44;}
	.st23{fill:#828282;}
	.st24{fill:#6D6D6D;}
	.st25{fill:#C8C8C8;}
	.st26{clip-path:url(#SVGID_6_);enable-background:new    ;}
	.st27{fill:#717171;}
	.st28{fill:#757575;}
	.st29{fill:#7A7A7A;}
	.st30{fill:#69330B;}
	.st31{fill:#91470F;}
	.st32{fill:#B35712;}
	.st33{display:inline;fill:#D9D9D9;}
	.st34{display:inline;fill:#48444A;}
	.st35{display:inline;fill:#4D494E;}
	.st36{display:inline;fill:#136B9A;}
	.st37{display:inline;fill:#155779;}
	.st38{display:inline;fill:#CD6415;}
	.st39{display:inline;fill:#224F74;}
	.st40{fill:#484449;}
	.st41{fill:#204A6D;}
	.st42{fill:#126490;}
	.st43{fill:#145171;}
	.st44{fill:#C05E14;}
	.st45{clip-path:url(#SVGID_8_);enable-background:new    ;}
	.st46{fill:#434045;}
	.st47{clip-path:url(#SVGID_10_);enable-background:new    ;}
	.st48{fill:#838383;}
	.st49{clip-path:url(#SVGID_12_);enable-background:new    ;}
	.st50{fill:#CBCBCB;}
</style>
<g class="st0">
	<g class="st1">
		<polygon class="st2" points="374.9,448.1 283.8,398.5 287.7,398 378.8,447.6 		"/>
	</g>
	<g class="st3">
		<defs>
			<path id="SVGID_1_" class="st4" d="M409.7,67.6l91.2,49.6c-0.8-0.4-1.7-0.6-2.7-0.5L407,67.2C408,67,408.9,67.2,409.7,67.6z"/>
		</defs>
		<clipPath id="SVGID_2_">
			<use xlink:href="#SVGID_1_"  style="overflow:visible;"/>
		</clipPath>
		<g class="st5">
			<path class="st6" d="M498.2,116.7L407,67.2c1-0.1,1.9,0,2.7,0.5l91.2,49.6C500.1,116.8,499.2,116.6,498.2,116.7"/>
		</g>
	</g>
	<g class="st1">
		<polygon class="st7" points="378.8,447.6 287.7,398 288,209.1 379.2,258.7 		"/>
	</g>
	<g class="st1">
		<polygon class="st8" points="365.9,365.9 274.7,316.3 274.8,250.2 366,299.8 		"/>
	</g>
	<g class="st1">
		<polygon class="st9" points="359.6,337.3 268.5,287.7 268.5,283.5 359.6,333.1 		"/>
	</g>
	<g class="st1">
		<polygon class="st9" points="359.6,327.7 268.5,278.1 268.5,274 359.6,323.6 		"/>
	</g>
	<g class="st1">
		<polygon class="st9" points="359.7,318.2 268.5,268.6 268.5,264.4 359.7,314 		"/>
	</g>
	<g class="st1">
		<polygon class="st10" points="327.7,371.3 236.6,321.7 274.7,316.3 365.9,365.9 		"/>
	</g>
	<g class="st1">
		<path class="st11" d="M503,241.3l-0.3,183.4c0,3-2.3,5.8-5.1,6.2l-122.7,17.2l3.9-0.5l0.4-188.9L503,241.3z"/>
	</g>
	<g class="st1">
		<polygon class="st2" points="379.2,258.7 288,209.1 411.8,191.7 503,241.3 		"/>
	</g>
	<g class="st1">
		<polygon class="st12" points="334.1,340.9 242.9,291.3 268.5,287.7 359.6,337.3 		"/>
	</g>
	<g class="st1">
		<polygon class="st13" points="334.1,340.9 242.9,291.3 242.9,287.1 334.1,336.7 		"/>
	</g>
	<g class="st1">
		<polygon class="st14" points="334.1,336.7 242.9,287.1 268.5,283.5 359.6,333.1 		"/>
	</g>
	<g class="st1">
		<polygon class="st12" points="334.1,331.3 243,281.7 268.5,278.1 359.6,327.7 		"/>
	</g>
	<g class="st1">
		<polygon class="st14" points="334.1,327.2 243,277.6 268.5,274 359.6,323.6 		"/>
	</g>
	<g class="st1">
		<polygon class="st13" points="334.1,331.3 243,281.7 243,277.6 334.1,327.2 		"/>
	</g>
	<g class="st1">
		<polygon class="st12" points="334.1,321.8 243,272.2 268.5,268.6 359.7,318.2 		"/>
	</g>
	<g class="st1">
		<polygon class="st13" points="334.1,321.8 243,272.2 243,268 334.2,317.6 		"/>
	</g>
	<g class="st1">
		<polygon class="st14" points="334.2,317.6 243,268 268.5,264.4 359.7,314 		"/>
	</g>
	<g class="st1">
		<polygon class="st9" points="327.7,371.3 236.6,321.7 236.7,255.5 327.9,305.1 		"/>
	</g>
	<g class="st1">
		<polygon class="st12" points="327.9,305.1 236.7,255.5 274.8,250.2 366,299.8 		"/>
	</g>
	<g class="st1">
		<polygon class="st10" points="327.9,280.2 236.7,230.6 274.9,225.3 366.1,274.9 		"/>
	</g>
	<g class="st1">
		<polygon class="st9" points="327.9,280.2 236.7,230.6 236.8,216.3 327.9,265.9 		"/>
	</g>
	<g class="st1">
		<path class="st15" d="M366.1,260.6l13.1-1.8l-0.4,188.9l-3.9,0.5l-62.5,8.8l0.4-188.8l15.2-2.1l0,14.3l38.1-5.4L366.1,260.6z
			 M365.9,365.9l0.1-66.1l-38.1,5.4l-0.1,66.1L365.9,365.9"/>
	</g>
	<g class="st1">
		<polygon class="st16" points="359.6,333.1 359.6,337.3 334.1,340.9 334.1,336.7 		"/>
	</g>
	<g class="st1">
		<polygon class="st16" points="359.6,323.6 359.6,327.7 334.1,331.3 334.1,327.2 		"/>
	</g>
	<g class="st1">
		<polygon class="st8" points="366.1,274.9 274.9,225.3 274.9,211 366.1,260.6 		"/>
	</g>
	<g class="st1">
		<polygon class="st10" points="366.1,260.6 274.9,211 288,209.1 379.2,258.7 		"/>
	</g>
	<g class="st1">
		<polygon class="st16" points="359.7,314 359.7,318.2 334.1,321.8 334.2,317.6 		"/>
	</g>
	<g class="st1">
		<path class="st17" d="M327.9,305.1l38.1-5.4l-0.1,66.1l-38.1,5.4L327.9,305.1z M359.6,327.7l0-4.2l-25.5,3.6l0,4.2L359.6,327.7
			 M359.7,318.2l0-4.2l-25.5,3.6l0,4.2L359.7,318.2 M359.6,337.3l0-4.2l-25.5,3.6l0,4.2L359.6,337.3"/>
	</g>
	<g class="st1">
		<polygon class="st12" points="327.9,265.9 236.8,216.3 274.9,211 366.1,260.6 		"/>
	</g>
	<g class="st1">
		<polygon class="st17" points="366.1,260.6 366.1,274.9 327.9,280.2 327.9,265.9 		"/>
	</g>
	<g class="st1">
		<polygon class="st10" points="312.8,268.1 221.6,218.5 236.8,216.3 327.9,265.9 		"/>
	</g>
	<g class="st1">
		<polygon class="st8" points="312.4,456.9 221.3,407.3 221.6,218.5 312.8,268.1 		"/>
	</g>
	<g class="st3">
		<defs>
			<path id="SVGID_3_" class="st4" d="M187.1,473.7l-91.2-49.6c-1.4-0.8-2.3-2.3-2.3-4.3l91.2,49.6
				C184.7,471.4,185.7,472.9,187.1,473.7z"/>
		</defs>
		<clipPath id="SVGID_4_">
			<use xlink:href="#SVGID_3_"  style="overflow:visible;"/>
		</clipPath>
		<g class="st18">
			<path class="st19" d="M187.1,473.7l-91.2-49.6c-1.4-0.8-2.3-2.3-2.3-4.3l91.2,49.6C184.7,471.4,185.7,472.9,187.1,473.7"/>
		</g>
	</g>
	<g class="st1">
		<polygon class="st20" points="184.7,469.4 93.6,419.8 93.9,236.4 185.1,286 		"/>
	</g>
	<g class="st1">
		<polygon class="st21" points="185.1,286 93.9,236.4 221.6,218.5 312.8,268.1 		"/>
	</g>
	<g class="st1">
		<path class="st22" d="M312.8,268.1l-0.4,188.9l-122.7,17.2c-2.8,0.4-5-1.7-5-4.7l0.3-183.4L312.8,268.1z"/>
	</g>
	<g class="st1">
		<polygon class="st23" points="190.3,160 99.2,110.4 407,67.2 498.2,116.7 		"/>
	</g>
	<g class="st1">
		<polygon class="st24" points="185.1,286 93.9,236.4 94.1,116.6 185.3,166.2 		"/>
	</g>
	<g class="st1">
		<path class="st25" d="M498.2,116.7c2.8-0.4,5,1.7,5,4.7L503,241.3l-123.8,17.4l-13.1,1.8l-38.1,5.4l-15.2,2.1L185.1,286l0.2-119.8
			c0-3,2.3-5.8,5.1-6.2L498.2,116.7z"/>
	</g>
	<g class="st3">
		<defs>
			<path id="SVGID_5_" class="st4" d="M185.3,166.2l-91.2-49.6c0-3,2.3-5.8,5.1-6.2l91.2,49.6C187.6,160.4,185.3,163.2,185.3,166.2z
				"/>
		</defs>
		<clipPath id="SVGID_6_">
			<use xlink:href="#SVGID_5_"  style="overflow:visible;"/>
		</clipPath>
		<g class="st26">
			<path class="st27" d="M185.3,166.2l-91.2-49.6c0-1.9,0.9-3.6,2.2-4.8l91.2,49.6C186.2,162.5,185.3,164.3,185.3,166.2"/>
			<path class="st28" d="M187.5,161.4l-91.2-49.6c0.4-0.3,0.8-0.6,1.2-0.8l91.2,49.6C188.3,160.8,187.9,161,187.5,161.4"/>
			<path class="st29" d="M188.7,160.5l-91.2-49.6c0.4-0.2,0.9-0.4,1.4-0.5l91.2,49.6C189.6,160.1,189.2,160.3,188.7,160.5"/>
			<path class="st6" d="M190.1,160.1l-91.2-49.6c0.1,0,0.2,0,0.2,0l91.2,49.6C190.3,160,190.2,160,190.1,160.1"/>
		</g>
	</g>
	<g class="st1">
		<g>
			<g class="st4">
				<g>
					<polygon class="st30" points="336.2,310 327.1,305.1 327.1,280.2 336.2,285.1 					"/>
				</g>
				<g>
					<polygon class="st31" points="336.2,285.1 327.1,280.2 365.3,274.8 374.4,279.8 					"/>
				</g>
				<g>
					<polygon class="st32" points="374.4,279.8 374.3,304.7 336.2,310 336.2,285.1 					"/>
				</g>
			</g>
		</g>
	</g>
</g>
<g class="st0">
	<path class="st33" d="M477,222.6H119.8V97.8c0-3.1,2.5-5.7,5.7-5.7h345.9c3.1,0,5.7,2.5,5.7,5.7V222.6z"/>
	<path class="st34" d="M263.3,420.2H125.5c-3.1,0-5.7-2.5-5.7-5.7V223.6h143.5V420.2z"/>
	<path class="st35" d="M471.3,420.2H333.5V223.6H477v190.9C477,417.6,474.5,420.2,471.3,420.2z"/>
	<rect x="263.3" y="223.6" class="st36" width="74.6" height="196.6"/>
	<rect x="280.3" y="223.6" class="st37" width="42.8" height="109.6"/>
	<rect x="280.3" y="242.4" class="st38" width="42.8" height="25.9"/>
	<rect x="287.4" y="278.3" class="st39" width="28.7" height="4.3"/>
	<rect x="287.4" y="288.2" class="st39" width="28.7" height="4.3"/>
	<rect x="287.4" y="298.2" class="st39" width="28.7" height="4.3"/>
</g>
<g id="LootBox">
	<g>
		<path class="st40" d="M385.4,171.5l-0.9,183.4c0,3-5.8,5.8-13,6.2L67,397l-1-19.2L68,214L385.4,171.5z"/>
	</g>
	<g>
		<polygon class="st20" points="499.1,416.6 385.2,354.6 385.5,171.2 499.5,233.2 		"/>
	</g>
	<g>
		<path class="st40" d="M499.4,231.5l-0.3,183.4c0,3-2.3,5.8-5.1,6.2l-122.7,17.2l3.9-0.5l0.4-188.9L499.4,231.5z"/>
	</g>
	<g>
		<polygon class="st41" points="356,323.3 356,327.4 330.5,331 330.5,326.9 		"/>
	</g>
	<g>
		<polygon class="st41" points="356,313.8 356,317.9 330.5,321.5 330.5,317.3 		"/>
	</g>
	<g>
		<polygon class="st41" points="356.1,304.2 356.1,308.4 330.5,312 330.6,307.8 		"/>
	</g>
	<g>
		<polygon class="st42" points="375.6,248.9 375.2,437.8 371.3,438.3 308.8,447.1 309.2,258.2 324.3,256.1 324.1,361.4 362.3,356.1 
			362.4,293.8 362.4,268.9 362.5,250.7 		"/>
	</g>
	<g>
		<path class="st43" d="M324.1,361.4l0.1-62.3l38.1-5.4l-0.1,62.3L324.1,361.4z M330.5,317.3l0,4.2l25.5-3.6l0-4.2L330.5,317.3
			 M330.6,307.8l0,4.2l25.5-3.6l0-4.2L330.6,307.8 M330.5,326.9l0,4.2l25.5-3.6l0-4.2L330.5,326.9"/>
	</g>
	<g>
		<polygon class="st44" points="362.4,268.9 362.4,293.8 324.3,299.1 324.3,274.2 		"/>
	</g>
	<g>
		<polygon class="st43" points="324.3,256.1 362.5,250.7 362.4,268.9 324.3,274.2 		"/>
	</g>
	<g class="st4">
		<defs>
			<path id="SVGID_7_" class="st4" d="M183.5,463.9l-114-62c-1.4-0.8-2.3-2.3-2.3-4.3l114,62C181.1,461.5,182,463.1,183.5,463.9z"/>
		</defs>
		<clipPath id="SVGID_8_">
			<use xlink:href="#SVGID_7_"  style="overflow:visible;"/>
		</clipPath>
		<g class="st45">
			<path class="st19" d="M183.5,463.9l-114-62c-1.4-0.8-2.3-2.3-2.3-4.3l114,62C181.1,461.5,182,463.1,183.5,463.9"/>
		</g>
	</g>
	<g>
		<polygon class="st20" points="181.1,459.6 67.2,397.6 67.5,214.2 181.5,276.2 		"/>
	</g>
	<g>
		<path class="st46" d="M309.2,258.2l-0.4,188.9l-122.7,17.2c-2.8,0.4-5-1.7-5-4.7l0.3-183.4L309.2,258.2z"/>
	</g>
</g>
<g id="LootboxLid">
	<g class="st4">
		<defs>
			<path id="SVGID_9_" class="st4" d="M383.3,45.4l114,62c-0.8-0.4-1.7-0.6-2.7-0.5l-114-62C381.6,44.8,382.5,45,383.3,45.4z"/>
		</defs>
		<clipPath id="SVGID_10_">
			<use xlink:href="#SVGID_9_"  style="overflow:visible;"/>
		</clipPath>
		<g class="st47">
			<path class="st6" d="M494.6,107l-114-62c1-0.1,1.9,0,2.7,0.5l114,62C496.5,107,495.6,106.8,494.6,107"/>
		</g>
	</g>
	<g>
		<polygon class="st48" points="186.7,150.2 72.8,88.2 380.6,45 494.6,107 		"/>
	</g>
	<g>
		<polygon class="st24" points="181.5,276.2 67.5,214.2 67.7,94.4 181.7,156.4 		"/>
	</g>
	<g class="st4">
		<defs>
			<path id="SVGID_11_" class="st4" d="M181.7,156.4l-114-62c0-3,2.3-5.8,5.1-6.2l114,62C184,150.6,181.7,153.4,181.7,156.4z"/>
		</defs>
		<clipPath id="SVGID_12_">
			<use xlink:href="#SVGID_11_"  style="overflow:visible;"/>
		</clipPath>
		<g class="st49">
			<path class="st27" d="M181.7,156.4l-114-62c0-1.5,0.6-3,1.5-4.1l114,62C182.3,153.4,181.7,154.9,181.7,156.4"/>
			<path class="st28" d="M183.2,152.3l-114-62c0.3-0.4,0.7-0.8,1.2-1.1l114,62C183.9,151.5,183.5,151.9,183.2,152.3"/>
			<path class="st29" d="M184.4,151.2l-114-62c0.5-0.3,1-0.6,1.5-0.8l114,62C185.3,150.6,184.8,150.9,184.4,151.2"/>
			<path class="st6" d="M185.9,150.4l-114-62c0.3-0.1,0.6-0.2,0.9-0.2l114,62C186.4,150.3,186.2,150.3,185.9,150.4"/>
		</g>
	</g>
	<g>
		<path class="st50" d="M494.6,107c2.8-0.4,5,1.7,5,4.7l-0.2,119.8l-317.9,44.7l0.2-119.8c0-3,2.3-5.8,5.1-6.2L494.6,107z"/>
	</g>
</g>
<g id="PushButton">
	<g>
		<g class="st4">
			<g>
				<polygon class="st30" points="331.1,302.4 324.2,298.7 324.3,273.8 331.1,277.5 				"/>
			</g>
			<g>
				<polygon class="st31" points="331.1,277.5 324.3,273.8 362.4,268.4 369.2,272.1 				"/>
			</g>
			<g>
				<polygon class="st32" points="369.2,272.1 369.2,297 331.1,302.4 331.1,277.5 				"/>
			</g>
		</g>
	</g>
</g>
</svg>
