<?xml version="1.0" encoding="utf-8"?>
<!-- Generator: Adobe Illustrator 22.1.0, SVG Export Plug-In . SVG Version: 6.00 Build 0)  -->
<svg version="1.1" xmlns="http://www.w3.org/2000/svg" xmlns:xlink="http://www.w3.org/1999/xlink" x="0px" y="0px"
	 viewBox="0 0 566.9 566.9" style="enable-background:new 0 0 566.9 566.9;" xml:space="preserve">
<style type="text/css">
	.st0{fill:#D9D9D9;}
	.st1{fill:#333333;}
	.st2{fill:#968F11;}
	.st3{fill:#757015;}
	.st4{fill:#F2E003;}
	.st5{fill:#706C23;}
	.st6{fill:#706923;}
	.st7{fill:#6D32A0;}
	.st8{fill:#4C1577;}
	.st9{fill:#1933CC;}
	.st10{fill:#452272;}
	.st11{display:none;}
	.st12{display:inline;}
	.st13{fill:#991414;}
	.st14{fill:#771515;}
	.st15{fill:#7E19CC;}
	.st16{fill:#722222;}
	.st17{fill:#1E1E1E;}
	.st18{fill:#5A0C0C;}
	.st19{fill:#2D2D2D;}
	.st20{fill:#680E0E;}
	.st21{fill:#691313;}
	.st22{fill:#651E1E;}
	.st23{fill:#6F16B4;}
	.st24{fill:#871212;}
	.st25{fill:#3A0808;}
	.st26{fill:#441414;}
	.st27{fill:#470C0C;}
	.st28{fill:#5B0C0C;}
	.st29{fill:#4B0F79;}
	.st30{fill:#949494;}
	.st31{enable-background:new    ;}
	.st32{clip-path:url(#SVGID_2_);enable-background:new    ;}
	.st33{fill:#757575;}
	.st34{fill:#7A7A7A;}
	.st35{fill:#7E7E7E;}
	.st36{fill:#828282;}
	.st37{fill:#878787;}
	.st38{fill:#8B8B8B;}
	.st39{fill:#8F8F8F;}
	.st40{fill:#C0C0C0;}
	.st41{fill:#818181;}
	.st42{fill:#4A0F78;}
	.st43{fill:#56118B;}
	.st44{fill:#7016B5;}
	.st45{fill:#53138F;}
	.st46{fill:#400F70;}
	.st47{fill:#380D61;}
	.st48{display:inline;fill:#D9D9D9;}
	.st49{display:inline;fill:#48444A;}
	.st50{display:inline;fill:#4D494E;}
	.st51{display:inline;fill:#136B9A;}
	.st52{display:inline;fill:#155779;}
	.st53{display:inline;fill:#CD6415;}
	.st54{display:inline;fill:#224F74;}
	.st55{fill:#484449;}
	.st56{fill:#242225;}
	.st57{fill:#204A6D;}
	.st58{fill:#126490;}
	.st59{fill:#145171;}
	.st60{fill:#C05E14;}
	.st61{clip-path:url(#SVGID_4_);enable-background:new    ;}
	.st62{fill:#252326;}
	.st63{fill:#434045;}
	.st64{clip-path:url(#SVGID_6_);enable-background:new    ;}
	.st65{fill:#838383;}
	.st66{fill:#6D6D6D;}
	.st67{clip-path:url(#SVGID_8_);enable-background:new    ;}
	.st68{fill:#717171;}
	.st69{fill:#CBCBCB;}
	.st70{fill:#69330B;}
	.st71{fill:#91470F;}
	.st72{fill:#B35712;}
	.st73{fill:#0B2D3E;}
	.st74{fill:#155779;}
	.st75{fill:#224F74;}
	.st76{fill:#136B9A;}
	.st77{fill:#09232D;}
	.st78{fill:#12293C;}
	.st79{fill:#0A3750;}
	.st80{fill:#CD6415;}
	.st81{fill:#CC6315;}
	.st82{fill:#6D350B;}
	.st83{fill:#6A340B;}
</style>
<g id="Layer_4_1_">
</g>
<g id="Layer_3">
	<g id="Layer_4">
	</g>
</g>
<g id="Layer_2" class="st11">
</g>
<g id="Lootbox3D">
	<g id="Standard_Lootbox" class="st11">
		<g class="st12">
			<g>
				<path class="st55" d="M700.4,505.5l-0.9,183.4c0,3-5.8,5.8-13,6.2L382,731l-1-19.2l2-163.8L700.4,505.5z"/>
			</g>
			<g>
				<polygon class="st56" points="496.1,793.6 382.2,731.6 382.5,548.2 496.5,610.2 				"/>
			</g>
		</g>
		<g class="st12">
			<g>
				<polygon class="st65" points="501.7,484.2 387.8,422.2 695.6,379 809.6,441 				"/>
			</g>
			<g>
				<polygon class="st66" points="496.5,610.2 382.5,548.2 382.7,428.4 496.7,490.4 				"/>
			</g>
			<g class="st31">
				<defs>
					<path id="SVGID_7_" class="st31" d="M496.7,490.4l-114-62c0-3,2.3-5.8,5.1-6.2l114,62C499,484.6,496.7,487.4,496.7,490.4z"/>
				</defs>
				<clipPath id="SVGID_2_">
					<use xlink:href="#SVGID_7_"  style="overflow:visible;"/>
				</clipPath>
				<g class="st32">
					<path class="st68" d="M496.7,490.4l-114-62c0-1.5,0.6-3,1.5-4.1l114,62C497.3,487.4,496.7,488.9,496.7,490.4"/>
					<path class="st33" d="M498.2,486.3l-114-62c0.3-0.4,0.7-0.8,1.2-1.1l114,62C498.9,485.5,498.5,485.9,498.2,486.3"/>
					<path class="st34" d="M499.4,485.2l-114-62c0.5-0.3,1-0.6,1.5-0.8l114,62C500.3,484.6,499.8,484.9,499.4,485.2"/>
					<path class="st35" d="M500.9,484.4l-114-62c0.3-0.1,0.6-0.2,0.9-0.2l114,62C501.4,484.3,501.2,484.3,500.9,484.4"/>
				</g>
			</g>
			<g>
				<path class="st69" d="M809.6,441c2.8-0.4,5,1.7,5,4.7l-0.2,119.8l-317.9,44.7l0.2-119.8c0-3,2.3-5.8,5.1-6.2L809.6,441z"/>
			</g>
		</g>
	</g>
	<g id="Lootbox">
		<g>
			<path class="st17" d="M549.9,234l0.5,185.4c0,3-1.8,5.1-4,4.6L295,378l0,0l1-208L549.9,234z"/>
		</g>
		<g>
			<path class="st17" d="M296.9,297l1.1,185c11,6-2,5-4.6,5l-98.2-22.8l3.1,0.7L197.8,274L296.9,297z"/>
		</g>
		<g>
			<g>
				<polygon class="st73" points="440.6,367.2 390,360 386,297 440.5,304.3 				"/>
			</g>
			<g>
				<path class="st19" d="M548.4,233.5l1.8,185.2c0,3-1.7,6-4,6.5l-97.5,24.5l3.1-0.8L450,258.2L548.4,233.5z"/>
			</g>
			<g>
				<path class="st19" d="M296.4,170.5l1.8,185.2c0,3-1.7,6-4,6.5l-97.5,24.5l3.1-0.8L41,239L296.4,170.5z"/>
			</g>
			<g>
				<path class="st74" d="M406.3,374.8l-0.6-62.9l30.3-7.6l0.6,62.9L406.3,374.8z M410.9,329.9l0,4.2l20.3-5.1l0-4.2L410.9,329.9
					 M410.8,320.3l0,4.2l20.3-5.1l0-4.2L410.8,320.3 M411,339.6l0,4.2l20.3-5.1l0-4.2L411,339.6"/>
			</g>
			<g>
				<polygon class="st75" points="424.3,334.5 424.3,338.7 404,343.8 404,339.6 				"/>
			</g>
			<g>
				<polygon class="st75" points="424.2,324.9 424.2,329.1 403.9,334.1 403.9,329.9 				"/>
			</g>
			<g>
				<polygon class="st75" points="424.1,315.2 424.1,319.4 403.8,324.5 403.8,320.3 				"/>
			</g>
			<g>
				<polygon class="st23" points="439.7,279.2 440,304.3 409.7,311.9 409.4,286.8 				"/>
			</g>
			<g>
				<polygon class="st74" points="409.2,268.5 439.6,260.9 439.7,279.2 409.4,286.8 				"/>
			</g>
			<g>
				<polygon class="st76" points="450,258.2 451.9,449 448.8,449.8 399.1,462.2 397.2,272.5 397.2,271.5 409.2,268.5 410.3,374.8 
					440.6,367.2 440,304.3 439.7,279.2 439.6,260.9 				"/>
			</g>
			<g>
				<polygon class="st17" points="297.5,482.2 85.5,432.8 83.7,248.6 295.7,297.9 				"/>
			</g>
			<g>
				<polygon class="st77" points="198,383 152.2,375.3 148.5,308 197.8,315.8 				"/>
			</g>
			<g>
				<path class="st19" d="M397.2,271.5l0,1l1.9,189.8l-97.5,24.5c-2.2,0.6-4-1.5-4.1-4.5l-1.8-184.3l0-1L397.2,271.5z"/>
			</g>
		</g>
		<g>
			<path class="st17" d="M143.6,261.7l0,1l0.5,190L46,429.9c-2.2-0.5-4-3.4-4.1-6.4L41.4,239l0-1L143.6,261.7z"/>
		</g>
		<g>
			<polygon class="st78" points="192.4,333.2 192.4,337.4 172,332.7 172,328.5 			"/>
		</g>
		<g>
			<polygon class="st78" points="192.4,323.6 192.4,327.8 172,323.1 172,318.9 			"/>
		</g>
		<g>
			<path class="st73" d="M161,371l-0.2-63l30.5,7.1l0.2,63L161,371z M166,318.9l0,4.2l20.4,4.7l0-4.2L166,318.9 M166,328.5l0,4.2
				l20.4,4.7l0-4.2L166,328.5 M166,338.1l0,4.2l20.4,4.7l0-4.2L166,338.1"/>
		</g>
		<g>
			<polygon class="st78" points="192.4,342.9 192.4,347.1 172,342.4 172,338.1 			"/>
		</g>
		<g>
			<polygon class="st79" points="196.8,274 197.3,465 194.2,464.3 144.2,452.6 143.6,262.7 143.6,261.7 155.7,264.5 156,371 
				186.6,378.1 186.4,315.1 186.3,289.9 186.3,271.6 			"/>
		</g>
		<g>
			<polygon class="st73" points="155.7,264.5 186.3,271.6 186.3,289.9 155.8,282.9 			"/>
		</g>
	</g>
	<g id="LootboxLid">
		<g>
			<polygon class="st30" points="298.4,170.4 45,113 305,54 543.2,109 			"/>
		</g>
		<g>
			<path class="st40" d="M543.2,109c2.2-0.6,4,1.5,4.1,4.5l1.2,120.1L450,258.2l-10.4,2.6l-30.3,7.6l-12.1,3l0,1l0-1l-101.5,25.5
				l0,1l-1.2-121.1c0-3,1.7-6,4-6.5L543.2,109z"/>
		</g>
		<g>
			<polygon class="st41" points="41.4,239 41.4,238 41.4,238 			"/>
			<path class="st41" d="M294.5,173c0.1-0.2,0.1-0.3,0.2-0.5c0,0,0,0,0-0.1c0.2-0.3,0.4-0.7,0.6-1c0,0,0.1-0.1,0.1-0.1
				c0.1-0.1,0.2-0.2,0.3-0.4c0.1-0.1,0.1-0.1,0.2-0.2c0.1-0.1,0.2-0.2,0.3-0.3c0.1-0.1,0.1-0.1,0.2-0.2c0.1-0.1,0.2-0.2,0.3-0.3
				c0.1,0,0.1-0.1,0.2-0.1c0.1-0.1,0.3-0.2,0.4-0.3c0,0,0,0,0.1,0c0,0,0.1,0,0.1-0.1c0.1-0.1,0.2-0.1,0.3-0.1c0.1,0,0.1,0,0.2-0.1
				c0.1,0,0.2-0.1,0.3-0.1L45.7,112c0,0,0,0-0.1,0c-0.1,0-0.2,0.1-0.3,0.1c-0.1,0-0.1,0-0.2,0.1c-0.1,0-0.2,0.1-0.3,0.1
				c0,0-0.1,0-0.1,0.1c0,0,0,0,0,0c0,0,0,0-0.1,0c-0.2,0.1-0.3,0.2-0.4,0.3c-0.1,0-0.1,0.1-0.2,0.1c-0.1,0.1-0.2,0.2-0.3,0.3
				c-0.1,0-0.1,0.1-0.2,0.2c-0.1,0-0.1,0.1-0.2,0.1c-1.4,0.5-2.4,2.2-2.4,4.5l0,0.9c0,0.1,0,0.2,0,0.3c0,0,0,0.1,0,0.1
				c0,0.1,0,0.3,0,0.4l0,0L41.4,238l102.2,23.7l12.1,2.8l30.5,7.1l10.5,2.4l99.1,23l-0.3-120.2C295.5,175.5,295.1,174.1,294.5,173z"
				/>
		</g>
	</g>
	<g id="Button2">
		<g class="st31">
			<g>
				<polygon class="st71" points="423.7,315.4 409.7,312.2 409.3,287 423.4,290.2 				"/>
			</g>
			<g>
				<polygon class="st71" points="423.4,290.2 409.3,287 439.7,279.4 453.8,282.6 				"/>
			</g>
			<g>
				<polygon class="st80" points="453.8,282.6 454.1,307.8 423.7,315.4 423.4,290.2 				"/>
			</g>
		</g>
	</g>
	<g id="Button1">
		<g class="st31">
			<g>
				<polygon class="st81" points="169.3,294.6 186.9,290.6 186.6,315.8 169,319.8 				"/>
			</g>
			<g>
				<polygon class="st82" points="138.9,287 156.5,283 186.9,290.6 169.3,294.6 				"/>
			</g>
			<g>
				<polygon class="st83" points="169.3,294.6 169,319.8 138.5,312.2 138.9,287 				"/>
			</g>
		</g>
	</g>
</g>
</svg>
